# AST/ASF file generated using VICON BodyLanguage
# -----------------------------------------------
:version 1.10
:name VICON
:units
  mass 1.0
  length 0.45
  angle deg
:documentation
   .ast/.asf automatically generated from VICON data using
   VICON BodyBuilder and BodyLanguage model FoxedUp or BRILLIANT.MOD
:root
   order TX TY TZ RX RY RZ
   axis XYZ
   position 0 0 0  
   orientation 0 0 0 
:bonedata
  begin
     id 1 
     name lhipjoint
     direction 0.567149 -0.783011 0.255413 
     length 2.28399 
     axis 0 0 0  XYZ
  end
  begin
     id 2 
     name lfemur
     direction 0.34202 -0.939693 0  
     length 7.34031  
     axis 0 0 20  XYZ
    dof rx ry rz
    limits (-160.0 20.0)
           (-70.0 70.0)
           (-60.0 70.0)
  end
  begin
     id 3 
     name ltibia
     direction 0.34202 -0.939693 0   
     length 6.9833   
     axis 0 0 20   XYZ
    dof rx
    limits (-10.0 170.0)
  end
  begin
     id 4 
     name lfoot
     direction 0.136498 -0.375025 0.91691   
     length 2.33665   
     axis -90 7.62852e-016 20   XYZ
    dof rx rz
    limits (-45.0 90.0)
           (-70.0 20.0)
  end
  begin
     id 5 
     name ltoes
     direction 1.5367e-011 -4.21617e-011 1   
     length 1.15039   
     axis -90 7.62852e-016 20   XYZ
    dof rx
    limits (-90.0 20.0)
  end
  begin
     id 6 
     name rhipjoint
     direction -0.602854 -0.758518 0.247423   
     length 2.35775  
     axis 0 0 0  XYZ 
  end
  begin
     id 7 
     name rfemur
     direction -0.34202 -0.939693 0   
     length 7.43932   
     axis 0 0 -20   XYZ
    dof rx ry rz
    limits (-160.0 20.0)
           (-70.0 70.0)
           (-70.0 60.0)
  end
  begin
     id 8 
     name rtibia
     direction -0.34202 -0.939693 0   
     length 7.11893   
     axis 0 0 -20   XYZ
    dof rx
    limits (-10.0 170.0)
 end
 begin
     id 9 
     name rfoot
     direction -0.131771 -0.362037 0.922803   
     length 2.53019  
     axis -90 -7.62852e-016 -20   XYZ
    dof rx rz
    limits (-45.0 90.0)
           (-20.0 70.0)
  end
  begin
     id 10 
     name rtoes
     direction -1.53733e-011 -4.21932e-011 1   
     length 1.24596   
     axis -90 -7.62852e-016 -20   XYZ
    dof rx
    limits (-90.0 20.0)
  end
  begin
     id 11 
     name lowerback
     direction 0.0235427 0.999023 -0.0374125   
     length 2.21768   
     axis 0 0 0   XYZ
    dof rx ry rz
    limits (-20.0 45.0)
           (-30.0 30.0)
           (-30.0 30.0)
  end
  begin
     id 12 
     name upperback
     direction 0.0302156 0.996818 -0.073759   
     length 2.20352   
     axis 0 0 0   XYZ
    dof rx ry rz
    limits (-20.0 45.0)
           (-30.0 30.0)
           (-30.0 30.0)
  end
  begin
     id 13 
     name thorax
     direction 0.0187169 0.998235 -0.0563532   
     length 2.22103   
     axis 0 0 0   XYZ
    dof rx ry rz
    limits (-20.0 45.0)
           (-30.0 30.0)
           (-30.0 30.0)
  end
  begin
     id 14 
     name lowerneck
     direction -0.119528 0.987423 0.103481   
     length 1.72948   
     axis 0 0 0   XYZ
    dof rx ry rz
    limits (-20.0 45.0)
           (-30.0 30.0)
           (-30.0 30.0)
  end
  begin
     id 15 
     name upperneck
     direction 0.248049 0.963095 -0.104496   
     length 1.74979   
     axis 0 0 0   XYZ
    dof rx ry rz
    limits (-20.0 45.0)
           (-30.0 30.0)
           (-30.0 30.0)
  end
  begin
     id 16
     name head
     direction 0.0903589 0.994284 -0.056876  
     length 1.78268  
     axis 0 0 0   XYZ
    dof rx ry rz
    limits (-20.0 45.0)
           (-30.0 30.0)
           (-30.0 30.0)
  end
  begin
     id 17 
     name lclavicle
     direction 0.946008 0.242039 -0.215608  
     length 3.80783  
     axis 0 0 0   XYZ
    dof ry rz
    limits (-20.0 10.0)
           (0.0 20.0)
  end
  begin
     id 18 
     name lhumerus
     direction 1 -4.48991e-011 -2.25695e-027   
     length 4.83125   
     axis 180 -30 -90   XYZ
    dof rx ry rz
    limits (-60.0 90.0)
           (-90.0 90.0)
           (-90.0 90.0)
  end
  begin
     id 19
     name lradius
     direction 0.999991 0.00366712 -0.00211721   
     length 3.00391   
     axis 180 -30 -90   XYZ
    dof rx
    limits (-10.0 170.0)
  end
  begin
     id 20
     name lwrist
     direction 0.999991 0.00393016 -0.00141978   
     length 1.50195   
     axis -1.00488e-014 90 90   XYZ
    dof ry
    limits (-180.0 0.0)
 end
  begin
     id 21 
     name lhand
     direction 1 -4.49123e-011 2.72098e-026   
     length 1.2717   
     axis -1.73687e-014 90 90   XYZ
    dof rx rz
    limits (-90.0 90.0)
           (-45.0 45.0)
  end
  begin
     id 22 
     name lfingers
     direction 1 -4.48678e-011 5.4479e-026   
     length 1.02528   
     axis -3.47372e-014 90 90   XYZ
    dof rx
    limits (0.0 90.0)
  end
  begin
     id 23
     name lthumb
     direction 0.707107 -6.34851e-011 0.707107   
     length 1.4721   
     axis -90 45 -1.62303e-014   XYZ
    dof rx rz
    limits (-45.0 45.0)
           (-45.0 45.0)
  end
  begin
     id 24 
     name rclavicle
     direction -0.981723 0.189447 -0.0181673   
     length 3.74989  
     axis 0 0 0   XYZ 
    dof ry rz
    limits (-10.0 20.0)
           (-20.0 0.0)
  end
  begin
     id 25 
     name rhumerus
     direction -1 -4.48985e-011 2.38206e-027  
     length 4.61118   
     axis 180 30 90   XYZ
    dof rx ry rz
    limits (-90.0 60.0)
           (-90.0 90.0)
           (-90.0 90.0)
  end
  begin
     id 26 
     name rradius
     direction -1 -4.48977e-011 7.41019e-027   
     length 2.91491   
     axis 180 30 90   XYZ
    dof rx
    limits (-10.0 170.0)
  end
  begin
     id 27 
     name rwrist
     direction -1 -4.48549e-011 1.3624e-026   
     length 1.45745   
     axis -1.00488e-014 -90 -90   XYZ
    dof ry
    limits (-180.0 0.0)
  end
  begin
     id 28
     name rhand
     direction -1 -4.49107e-011 2.72109e-026   
     length 1.30769   
     axis -1.73687e-014 -90 -90   XYZ
    dof rx rz
    limits (-90.0 90.0)
           (-45.0 45.0)
  end
  begin
     id 29
     name rfingers
     direction -1 -4.48919e-011 5.44468e-026   
     length 1.05429   
     axis -3.47372e-014 -90 -90   XYZ
    dof rx
    limits (0.0 90.0)
  end
  begin
     id 30
     name rthumb
     direction -0.707107 -6.35315e-011 0.707107   
     length 1.51376   
     axis -90 -45 1.62303e-014   XYZ
    dof rx rz
    limits (-45.0 45.0)
           (-45.0 45.0)
  end
:hierarchy
  begin
    root lhipjoint rhipjoint lowerback
    lhipjoint lfemur
    lfemur ltibia
    ltibia lfoot
    lfoot ltoes
    rhipjoint rfemur
    rfemur rtibia
    rtibia rfoot
    rfoot rtoes
    lowerback upperback
    upperback thorax
    thorax lowerneck lclavicle rclavicle
    lowerneck upperneck
    upperneck head
    lclavicle lhumerus
    lhumerus lradius
    lradius lwrist
    lwrist lhand lthumb
    lhand lfingers
    rclavicle rhumerus
    rhumerus rradius
    rradius rwrist
    rwrist rhand rthumb
    rhand rfingers
  end

#!OML:ASF X:\für Bonn\!DataBase\2005_08_11_Bastian_Final\c3d\Bastian.ASF
:FULLY-SPECIFIED
:DEGREES
16
root -1.43561 16.9684 1.73546 172.289 -4.11232 -176.837
lowerback 17.3587 -0.103415 -2.32442
upperback 5.66908 -1.36997 0.156636
thorax -3.6136 -1.04628 1.77967
lowerneck -9.34726 -5.46287 -5.51222
upperneck -4.7231 -7.51511 13.7477
head 0.899711 -3.91293 4.73465
rclavicle -8.64713e-015 8.74653e-015
rhumerus 72.9263 20.694 9.42886
rradius 38.0074
rwrist -61.8677
rhand -47.2433 -7.82926
rfingers 7.12502
rthumb -19.9412 -36.8261
lclavicle -8.64713e-015 8.74653e-015
lhumerus 74.9918 -23.9602 -28.8818
lradius 30.7506
lwrist 23.9205
lhand -43.6162 20.6733
lfingers 7.12502
lthumb -16.4517 49.9957
rfemur -11.1545 -1.71205 24.8085
rtibia 48.6108
rfoot -23.8202 -6.74993
rtoes -5.11288
lfemur -7.79891 4.14593 -16.1937
ltibia 42.7649
lfoot -20.4596 -7.01729
ltoes -12.8906
17
root -1.42706 16.9036 1.74206 171.976 -4.03857 -176.637
lowerback 17.7322 -0.0929729 -2.11272
upperback 5.75913 -1.35668 0.227804
thorax -3.71817 -1.05221 1.74073
lowerneck -9.41664 -5.49677 -5.60012
upperneck -4.65155 -7.54823 13.7131
head 0.936491 -3.92036 4.7334
rclavicle -1.98785e-015 -1.03368e-014
rhumerus 73.09 20.6011 9.93306
rradius 38.1152
rwrist -62.1243
rhand -47.2338 -7.75727
rfingers 7.12502
rthumb -19.932 -36.7551
lclavicle -1.98785e-015 -1.03368e-014
lhumerus 75.0419 -24.1566 -29.1734
lradius 30.7913
lwrist 24.1452
lhand -43.6852 20.6166
lfingers 7.12502
lthumb -16.5182 49.9335
rfemur -11.2401 -1.92475 25.0293
rtibia 49.4067
rfoot -24.4015 -6.69792
rtoes -4.93784
lfemur -8.29709 4.07684 -15.9244
ltibia 44.3082
lfoot -21.1399 -7.04796
ltoes -12.9384
18
root -1.41937 16.8307 1.74805 171.648 -3.95828 -176.341
lowerback 18.1209 -0.0978685 -1.79365
upperback 5.84973 -1.34371 0.320283
thorax -3.83082 -1.05877 1.66393
lowerneck -9.50214 -5.52644 -5.69686
upperneck -4.58318 -7.57618 13.6987
head 0.975802 -3.92545 4.73957
rclavicle -1.63003e-014 1.59028e-014
rhumerus 73.2358 20.4779 10.429
rradius 38.2134
rwrist -62.3563
rhand -47.1808 -7.64052
rfingers 7.12502
rthumb -19.8811 -36.6436
lclavicle -1.63003e-014 1.59028e-014
lhumerus 75.0324 -24.3104 -29.284
lradius 30.7844
lwrist 24.1658
lhand -43.6783 20.5338
lfingers 7.12502
lthumb -16.5115 49.8513
rfemur -11.3579 -2.18561 25.3431
rtibia 50.2853
rfoot -25.1228 -6.64877
rtoes -5.58446
lfemur -8.85464 4.043 -15.5421
ltibia 46.0126
lfoot -21.8954 -7.11829
ltoes -12.9245
19
root -1.41205 16.7483 1.75341 171.343 -3.88108 -176.112
lowerback 18.4945 -0.101015 -1.52404
upperback 5.92923 -1.33431 0.382139
thorax -3.94613 -1.06632 1.58329
lowerneck -9.56006 -5.55644 -5.7693
upperneck -4.54127 -7.6075 13.6908
head 1.00269 -3.93527 4.74479
rclavicle 1.78906e-015 1.35174e-014
rhumerus 73.3525 20.3403 10.8745
rradius 38.3127
rwrist -62.5666
rhand -47.132 -7.55836
rfingers 7.12502
rthumb -19.8342 -36.5663
lclavicle 1.78906e-015 1.35174e-014
lhumerus 75.0027 -24.4237 -29.362
lradius 30.7372
lwrist 24.0772
lhand -43.6486 20.4088
lfingers 7.12502
lthumb -16.4829 49.7287
rfemur -11.5365 -2.46556 25.5763
rtibia 51.2596
rfoot -25.7938 -6.55422
rtoes -5.79106
lfemur -9.49155 3.98564 -15.2382
ltibia 47.8425
lfoot -22.7501 -7.16812
ltoes -13.0356
20
root -1.40468 16.6562 1.75795 171.055 -3.80019 -175.911
lowerback 18.8524 -0.0927072 -1.29727
upperback 6.00616 -1.31458 0.453607
thorax -4.05441 -1.06906 1.53456
lowerneck -9.62778 -5.5826 -5.87219
upperneck -4.5013 -7.63036 13.6991
head 1.03178 -3.94017 4.76016
rclavicle -6.65929e-015 -1.35174e-014
rhumerus 73.4639 20.1756 11.2974
rradius 38.3824
rwrist -62.7389
rhand -47.0769 -7.52684
rfingers 7.12502
rthumb -19.7812 -36.5403
lclavicle -6.65929e-015 -1.35174e-014
lhumerus 74.9487 -24.4746 -29.3881
lradius 30.6817
lwrist 23.8608
lhand -43.5406 20.3993
lfingers 7.12502
lthumb -16.3789 49.7277
rfemur -11.7836 -2.78327 25.7665
rtibia 52.3473
rfoot -26.5117 -6.44629
rtoes -5.98118
lfemur -10.1772 3.92776 -14.9672
ltibia 49.7632
lfoot -23.6504 -7.24585
ltoes -12.7857
21
root -1.39888 16.5567 1.76242 170.771 -3.71544 -175.688
lowerback 19.2203 -0.0963849 -1.03825
upperback 6.0739 -1.30238 0.525139
thorax -4.1772 -1.07514 1.46965
lowerneck -9.6778 -5.59892 -5.95505
upperneck -4.48943 -7.6426 13.7126
head 1.04828 -3.94264 4.77544
rclavicle -3.18055e-015 -7.15625e-015
rhumerus 73.5786 19.9927 11.7657
rradius 38.5185
rwrist -63.0789
rhand -47.1063 -7.40694
rfingers 7.12502
rthumb -19.8095 -36.4174
lclavicle -3.18055e-015 -7.15625e-015
lhumerus 74.9311 -24.4806 -29.7024
lradius 30.7099
lwrist 23.8658
lhand -43.4795 20.3921
lfingers 7.12502
lthumb -16.3201 49.7254
rfemur -12.0877 -3.14233 25.9587
rtibia 53.5512
rfoot -27.2741 -6.27671
rtoes -6.01826
lfemur -10.8985 3.86589 -14.6717
ltibia 51.751
lfoot -24.5968 -7.36611
ltoes -12.5544
22
root -1.39362 16.4527 1.76662 170.49 -3.6415 -175.486
lowerback 19.6063 -0.0992242 -0.81778
upperback 6.14295 -1.29573 0.607679
thorax -4.30605 -1.08502 1.44012
lowerneck -9.79201 -5.61709 -6.01536
upperneck -4.44331 -7.65955 13.6914
head 1.08284 -3.9445 4.77392
rclavicle -6.65929e-015 -2.22639e-014
rhumerus 73.6889 19.7769 12.1744
rradius 38.6475
rwrist -63.3973
rhand -47.1897 -7.30984
rfingers 7.12502
rthumb -19.8896 -36.3121
lclavicle -6.65929e-015 -2.22639e-014
lhumerus 74.9389 -24.4349 -30.2506
lradius 30.8167
lwrist 24.0798
lhand -43.4616 20.5508
lfingers 7.12502
lthumb -16.3029 49.8855
rfemur -12.4539 -3.51872 26.1232
rtibia 54.8681
rfoot -28.0571 -6.1163
rtoes -6.14214
lfemur -11.6458 3.81018 -14.4012
ltibia 53.7865
lfoot -25.5427 -7.48617
ltoes -12.3901
